{"glyphs":{"\u0000":{"ha":0,"x_min":0,"x_max":0,"o":""},"\r":{"ha":342,"x_min":0,"x_max":0,"o":""}," ":{"ha":342,"x_min":0,"x_max":0,"o":""},"b":{"ha":567,"x_min":7,"x_max":553,"o":"m 292 589 q 426 594 372 610 q 509 540 479 579 q 546 442 539 500 q 540 322 553 385 q 497 195 528 258 q 420 83 467 132 q 313 3 374 33 q 182 -26 253 -28 q 113 -14 143 -22 q 60 9 82 -6 q 25 48 38 24 q 10 110 13 72 q 8 151 7 128 q 13 197 10 174 q 18 242 15 219 q 22 282 21 264 q 39 390 31 339 q 58 490 47 440 q 80 590 68 539 q 106 700 92 642 q 131 787 118 743 q 158 865 143 831 q 196 919 174 900 q 250 931 218 938 q 319 913 296 931 q 349 865 342 894 q 349 799 356 836 q 332 724 343 763 q 309 651 321 686 q 292 589 297 615 m 353 372 q 338 417 354 403 q 299 431 321 431 q 258 419 278 431 q 235 386 239 407 q 216 315 226 354 q 199 242 206 276 q 191 181 192 207 q 200 151 190 156 q 260 163 232 143 q 308 217 288 183 q 340 293 328 251 q 353 372 351 335 z "},"c":{"ha":568,"x_min":4,"x_max":539,"o":"m 378 514 q 283 448 319 483 q 224 376 246 413 q 193 301 203 339 q 178 231 183 264 q 194 158 171 186 q 257 128 217 131 q 315 136 289 126 q 364 161 340 146 q 410 195 388 176 q 456 231 432 214 q 468 240 458 232 q 488 256 478 249 q 508 267 499 264 q 522 265 518 271 q 535 226 538 247 q 522 186 532 206 q 458 89 497 135 q 372 12 419 43 q 269 -31 324 -19 q 158 -21 214 -42 q 58 50 93 0 q 11 168 24 100 q 11 276 4 222 q 35 381 18 331 q 80 478 53 432 q 140 565 107 525 q 197 618 165 593 q 263 661 228 643 q 334 686 297 679 q 408 686 371 693 q 494 631 460 671 q 533 533 529 592 q 492 378 539 447 q 469 349 483 363 q 438 329 454 336 q 403 322 421 322 q 372 335 386 322 q 349 401 340 363 q 365 458 356 426 q 378 514 374 489 z "},"d":{"ha":579,"x_min":11,"x_max":651,"o":"m 338 121 q 293 52 321 85 q 222 8 265 19 q 149 3 183 -8 q 89 40 115 14 q 44 102 63 67 q 19 168 26 138 q 16 281 11 224 q 38 390 21 338 q 85 489 56 442 q 157 574 115 536 q 274 638 213 622 q 399 621 335 653 q 424 702 413 658 q 447 785 435 746 q 476 856 460 825 q 518 899 493 886 q 578 910 542 917 q 625 883 608 901 q 647 840 642 864 q 647 790 651 817 q 629 742 642 764 q 534 415 567 582 q 494 54 501 247 q 493 41 494 47 q 492 28 492 35 q 474 -1 485 11 q 443 -11 464 -12 q 397 3 415 -10 q 365 35 378 17 q 347 77 353 54 q 338 121 340 100 m 368 472 q 294 446 331 468 q 231 390 258 424 q 187 317 203 357 q 174 240 171 278 q 181 210 174 222 q 199 194 188 197 q 226 198 211 190 q 258 226 242 206 q 286 256 271 239 q 316 302 301 274 q 344 372 331 331 q 368 472 358 413 z "},"e":{"ha":524,"x_min":1,"x_max":500,"o":"m 193 229 q 196 192 190 210 q 213 161 201 174 q 240 144 224 149 q 275 146 256 139 q 349 177 317 158 q 415 215 382 196 q 456 233 438 231 q 485 226 475 235 q 494 201 494 218 q 479 163 494 185 q 387 56 442 99 q 261 -7 332 13 q 128 6 192 -25 q 32 101 65 36 q 2 245 3 172 q 24 386 1 318 q 92 511 47 454 q 197 607 136 568 q 281 638 233 629 q 371 638 328 646 q 466 583 432 626 q 497 476 500 539 q 474 381 496 424 q 417 307 453 339 q 317 242 368 267 q 193 229 265 218 m 350 474 q 308 477 331 486 q 264 448 285 468 q 228 400 243 428 q 210 346 213 372 q 271 358 242 346 q 320 390 300 371 q 349 431 340 408 q 350 474 358 454 z "},"f":{"ha":472,"x_min":-79,"x_max":494,"o":"m 394 503 q 365 516 381 522 q 333 488 350 510 q 301 434 317 467 q 272 369 285 401 q 251 308 260 336 q 239 265 242 279 q 263 263 249 264 q 294 260 278 261 q 323 258 310 260 q 343 254 336 257 q 413 179 403 235 q 405 122 421 144 q 353 99 389 99 q 323 99 342 97 q 284 102 304 100 q 244 106 264 104 q 211 110 225 108 q 199 53 204 93 q 189 -37 193 13 q 182 -142 185 -87 q 178 -240 179 -196 q 159 -301 174 -285 q 127 -312 144 -317 q 91 -285 110 -307 q 60 -232 72 -264 q 35 -139 43 -182 q 26 -53 28 -96 q 24 35 24 -10 q 24 133 25 81 q -8 142 8 139 q -40 151 -25 146 q -70 183 -61 163 q -64 219 -79 204 q -15 241 -39 235 q 36 253 8 247 q 57 342 44 292 q 88 446 69 393 q 130 549 106 499 q 187 636 154 599 q 260 694 219 674 q 351 707 300 714 q 463 633 415 696 q 490 573 485 610 q 484 506 494 536 q 450 463 474 476 q 392 472 426 450 q 383 485 383 479 q 385 494 382 490 q 391 500 388 497 q 394 503 394 503 z "},"g":{"ha":522,"x_min":1,"x_max":508,"o":"m 240 15 q 130 36 175 14 q 56 96 85 58 q 15 183 28 133 q 4 290 3 233 q 41 447 8 382 q 126 553 74 513 q 176 584 147 571 q 236 604 206 597 q 296 611 267 611 q 346 601 325 611 q 446 606 403 622 q 501 544 489 589 q 508 505 508 529 q 505 451 508 481 q 497 392 501 422 q 489 333 492 361 q 457 142 474 240 q 415 -40 440 44 q 351 -185 389 -124 q 254 -264 313 -246 q 182 -265 221 -275 q 108 -229 143 -254 q 44 -168 72 -204 q 4 -92 17 -132 q 13 -44 1 -61 q 42 -22 24 -28 q 81 -23 60 -17 q 119 -46 103 -29 q 132 -58 128 -54 q 139 -63 136 -61 q 145 -67 142 -65 q 157 -78 149 -69 q 194 -83 178 -90 q 219 -58 210 -75 q 235 -21 229 -42 q 240 15 240 0 m 206 157 q 238 147 222 138 q 265 182 253 156 q 286 245 276 208 q 303 319 296 282 q 313 390 310 357 q 318 440 317 424 q 276 435 297 447 q 238 397 256 422 q 206 339 219 372 q 188 272 193 306 q 187 207 183 238 q 206 157 190 176 z "},"h":{"ha":594,"x_min":11,"x_max":582,"o":"m 482 583 q 565 492 547 556 q 558 329 582 429 q 535 249 547 290 q 510 165 522 207 q 486 83 497 124 q 467 8 475 43 q 443 -17 461 -17 q 406 -5 425 -18 q 370 28 386 8 q 351 64 354 49 q 336 125 338 93 q 340 192 335 157 q 355 268 346 228 q 371 354 364 308 q 374 369 372 361 q 375 381 376 376 q 365 386 374 386 q 339 379 357 386 q 256 308 286 343 q 208 235 226 272 q 176 154 189 197 q 147 58 164 111 q 115 -4 138 25 q 85 -16 106 -21 q 49 10 64 -11 q 18 117 25 53 q 15 252 11 181 q 32 395 19 324 q 60 525 44 467 q 78 588 68 554 q 101 657 89 622 q 124 725 113 692 q 146 786 136 758 q 168 835 156 811 q 196 881 181 860 q 231 919 211 903 q 275 943 250 936 q 334 935 310 949 q 371 899 358 922 q 383 844 383 875 q 368 782 383 813 q 345 719 361 758 q 313 637 329 679 q 283 557 296 594 q 271 499 271 519 q 315 540 292 519 q 364 576 338 561 q 420 594 390 590 q 482 583 450 597 z "},"i":{"ha":282,"x_min":22,"x_max":307,"o":"m 22 226 q 28 377 22 307 q 63 513 33 447 q 106 567 79 550 q 158 582 132 583 q 208 561 185 581 q 244 506 232 542 q 253 440 254 474 q 244 376 251 406 q 206 194 225 290 q 172 10 186 97 q 139 -14 163 -14 q 92 11 115 -14 q 60 57 72 31 q 40 113 47 83 q 28 171 32 142 q 22 226 25 200 m 299 722 q 306 682 307 703 q 298 644 306 661 q 277 616 290 628 q 246 603 264 604 q 207 608 226 601 q 170 625 188 614 q 139 652 153 636 q 118 686 125 668 q 113 724 111 704 q 125 761 115 744 q 150 789 135 778 q 185 800 165 800 q 254 779 221 801 q 299 722 288 757 z "},"j":{"ha":297,"x_min":-287,"x_max":335,"o":"m -287 -146 q -286 -115 -286 -125 q -285 -97 -286 -104 q -281 -83 -283 -89 q -271 -64 -278 -76 q -240 -44 -257 -49 q -209 -46 -224 -39 q -186 -72 -194 -53 q -181 -119 -178 -90 q -174 -152 -179 -136 q -156 -183 -169 -168 q -122 -201 -139 -200 q -90 -194 -106 -203 q -63 -172 -75 -186 q -46 -140 -51 -157 q -17 -51 -31 -106 q 9 70 -3 4 q 28 207 21 136 q 39 343 36 278 q 44 392 42 363 q 51 454 47 422 q 63 516 56 486 q 87 565 71 546 q 127 590 103 585 q 189 575 151 594 q 249 510 238 553 q 258 421 261 467 q 247 328 253 378 q 231 239 240 279 q 190 9 211 125 q 125 -208 168 -107 q 60 -293 100 -262 q -23 -333 21 -324 q -112 -334 -67 -343 q -195 -300 -158 -325 q -258 -235 -232 -275 q -287 -146 -283 -196 m 211 813 q 287 792 253 817 q 331 732 321 767 q 330 694 335 713 q 314 662 325 676 q 288 639 303 647 q 256 631 272 631 q 184 654 221 632 q 136 708 147 676 q 135 747 132 728 q 149 780 139 765 q 176 803 160 794 q 211 813 192 813 z "},"k":{"ha":529,"x_min":8,"x_max":613,"o":"m 247 522 q 285 560 263 542 q 332 593 307 579 q 382 613 357 607 q 429 613 407 618 q 481 585 461 603 q 511 535 500 567 q 518 472 521 504 q 503 411 515 440 q 472 356 492 382 q 431 313 453 331 q 400 289 415 300 q 369 267 385 278 q 397 154 376 204 q 445 67 417 104 q 509 6 474 31 q 582 -32 544 -18 q 606 -47 599 -39 q 612 -65 613 -56 q 603 -81 611 -74 q 583 -92 596 -87 q 440 -88 506 -104 q 326 -32 375 -72 q 246 70 276 8 q 208 211 215 132 q 170 206 182 214 q 158 174 158 199 q 149 114 153 143 q 138 56 144 85 q 114 1 131 25 q 63 -5 83 -15 q 31 33 43 6 q 15 98 19 60 q 9 176 10 136 q 10 253 8 217 q 11 313 11 290 q 31 465 15 383 q 68 627 46 547 q 119 778 90 707 q 178 896 147 849 q 221 938 196 921 q 272 958 246 954 q 320 950 297 961 q 356 908 343 939 q 363 840 365 875 q 344 778 360 806 q 326 729 340 765 q 296 652 313 693 q 265 574 279 611 q 247 522 251 538 m 192 318 q 255 333 231 324 q 295 356 279 343 q 319 382 311 368 q 335 410 328 396 q 335 432 336 421 q 330 451 335 443 q 317 460 325 458 q 296 456 308 463 q 269 434 281 443 q 245 411 257 425 q 221 376 233 397 q 192 318 208 354 z "},"l":{"ha":256,"x_min":3,"x_max":358,"o":"m 144 864 q 178 908 160 886 q 218 939 196 929 q 277 948 249 957 q 325 913 306 939 q 351 851 344 888 q 344 782 358 815 q 276 622 307 696 q 223 465 246 549 q 186 280 200 382 q 168 36 172 178 q 154 -1 164 14 q 103 -20 133 -22 q 57 17 72 -18 q 12 217 21 107 q 16 442 3 328 q 63 667 29 557 q 144 864 96 776 z "},"m":{"ha":843,"x_min":4,"x_max":817,"o":"m 251 553 q 319 605 279 588 q 399 619 360 622 q 472 594 439 617 q 519 528 506 571 q 592 585 547 565 q 681 601 636 604 q 762 571 726 599 q 807 488 797 543 q 810 373 817 439 q 789 238 804 307 q 752 107 774 169 q 710 3 731 44 q 669 -17 689 -19 q 633 1 650 -14 q 604 39 617 17 q 586 81 592 61 q 576 141 575 111 q 581 199 576 171 q 594 256 586 228 q 610 313 603 283 q 615 341 611 322 q 618 377 618 360 q 613 404 618 394 q 592 406 607 414 q 551 357 571 393 q 513 276 531 321 q 480 183 494 231 q 457 99 465 135 q 440 49 450 75 q 415 5 429 22 q 381 -15 400 -12 q 336 8 361 -17 q 310 61 314 33 q 303 118 306 89 q 310 256 299 190 q 339 385 321 321 q 338 403 343 397 q 323 411 332 410 q 304 408 314 413 q 290 396 294 404 q 265 365 276 379 q 242 329 253 350 q 222 279 232 308 q 200 206 211 250 q 178 120 188 163 q 154 35 168 78 q 122 -4 142 6 q 82 -7 103 -14 q 43 21 61 0 q 15 71 25 42 q 6 167 4 118 q 17 263 8 217 q 35 349 25 308 q 51 421 46 389 q 69 524 53 476 q 112 597 85 572 q 174 614 139 621 q 251 553 210 607 z "},"n":{"ha":589,"x_min":4,"x_max":575,"o":"m 318 406 q 255 363 281 389 q 210 300 229 338 q 176 214 190 263 q 149 103 163 165 q 140 67 144 88 q 128 27 136 46 q 108 -3 121 8 q 75 -11 96 -14 q 28 50 44 8 q 8 146 13 92 q 10 261 4 200 q 27 380 15 322 q 56 488 39 438 q 90 572 72 539 q 143 605 108 593 q 210 615 178 617 q 264 594 243 613 q 276 535 285 576 q 444 594 378 596 q 542 544 510 592 q 574 416 575 497 q 544 239 574 335 q 504 137 529 190 q 467 24 479 83 q 429 -19 453 -15 q 384 -6 406 -24 q 348 44 363 11 q 336 115 333 78 q 337 158 335 133 q 343 209 339 183 q 353 260 347 235 q 363 306 358 286 q 367 344 367 325 q 363 378 368 364 q 347 401 358 393 q 318 406 336 410 z "},"o":{"ha":538,"x_min":-3,"x_max":506,"o":"m 506 407 q 497 286 506 350 q 465 163 488 222 q 406 56 443 104 q 315 -15 369 8 q 199 -31 254 -36 q 101 3 144 -25 q 33 78 58 31 q 4 186 7 125 q 38 431 -3 329 q 161 593 79 532 q 275 636 215 631 q 385 617 335 642 q 470 538 436 592 q 506 407 504 485 m 288 456 q 238 411 258 443 q 206 342 218 379 q 188 266 193 304 q 183 203 182 228 q 194 157 183 172 q 220 139 206 142 q 250 144 235 136 q 274 165 265 151 q 319 255 304 210 q 342 354 333 300 q 342 382 342 361 q 338 422 343 403 q 322 453 333 442 q 288 456 310 465 z "},"p":{"ha":582,"x_min":-15,"x_max":568,"o":"m 272 579 q 331 613 300 601 q 397 618 361 624 q 505 555 468 606 q 554 431 542 504 q 545 259 568 342 q 471 117 522 176 q 344 31 419 57 q 178 29 269 4 q 151 -119 167 -46 q 104 -244 135 -192 q 67 -263 86 -265 q 33 -247 49 -261 q 5 -208 17 -232 q -10 -161 -7 -185 q -15 -92 -15 -150 q -8 46 -14 -35 q 8 219 -3 126 q 35 393 19 311 q 68 535 50 475 q 107 613 86 596 q 272 579 176 671 m 344 468 q 285 438 313 457 q 247 383 258 418 q 237 331 243 360 q 224 272 231 301 q 213 216 218 243 q 207 171 208 189 q 245 165 228 163 q 277 176 263 167 q 303 198 292 185 q 322 222 314 211 q 363 317 351 267 q 379 425 375 367 q 376 441 378 432 q 369 457 374 450 q 359 467 365 464 q 344 468 353 471 z "},"q":{"ha":564,"x_min":-1,"x_max":611,"o":"m 410 -89 q 466 -17 429 -42 q 547 0 503 7 q 586 -12 571 -3 q 606 -36 601 -22 q 604 -65 611 -50 q 576 -90 597 -79 q 531 -117 549 -103 q 500 -149 513 -132 q 477 -189 488 -167 q 454 -237 467 -211 q 386 -285 431 -281 q 300 -258 342 -290 q 260 -205 275 -237 q 238 -133 244 -172 q 234 -52 232 -94 q 247 32 236 -10 q 183 12 211 17 q 132 13 156 7 q 85 38 108 19 q 36 88 63 56 q -1 228 -1 149 q 31 385 -1 308 q 126 523 64 461 q 276 610 189 585 q 331 622 303 618 q 384 624 358 626 q 431 613 410 622 q 465 585 453 603 q 522 549 504 575 q 543 491 539 522 q 542 429 547 460 q 532 381 536 399 q 485 263 511 324 q 440 140 460 201 q 409 19 419 78 q 410 -89 399 -39 m 357 438 q 295 422 324 439 q 244 381 267 406 q 206 327 221 356 q 185 274 190 299 q 181 229 176 250 q 197 197 185 208 q 226 187 208 185 q 261 211 243 189 q 285 269 275 242 q 305 325 296 297 q 326 381 314 353 q 357 438 338 408 z "},"r":{"ha":514,"x_min":8,"x_max":536,"o":"m 267 507 q 292 531 281 518 q 317 558 304 544 q 349 583 331 571 q 393 603 367 594 q 481 588 447 613 q 525 524 514 563 q 525 442 536 485 q 481 375 514 400 q 441 354 464 358 q 397 354 418 350 q 363 369 376 358 q 349 394 349 381 q 313 386 331 397 q 278 354 294 375 q 248 305 261 333 q 226 244 235 276 q 206 173 217 210 q 182 103 194 136 q 157 44 169 69 q 133 8 144 18 q 90 -21 119 -10 q 38 -2 56 -25 q 15 60 21 21 q 11 153 8 100 q 22 263 14 206 q 39 378 29 321 q 54 483 49 435 q 82 553 63 519 q 139 592 101 586 q 188 597 164 600 q 228 583 211 594 q 256 551 246 571 q 267 507 267 532 z "},"s":{"ha":490,"x_min":-14,"x_max":503,"o":"m 161 268 q 60 387 75 317 q 103 539 46 457 q 160 594 125 571 q 236 631 196 618 q 318 644 276 643 q 396 634 360 646 q 458 597 432 622 q 494 529 485 571 q 492 462 503 489 q 460 419 481 435 q 416 402 440 404 q 374 410 392 400 q 351 442 357 421 q 360 499 344 464 q 320 518 346 519 q 276 500 294 517 q 256 455 257 483 q 288 396 254 426 q 369 339 335 368 q 423 277 404 310 q 444 205 442 244 q 431 117 446 165 q 366 28 407 63 q 276 -22 325 -7 q 173 -32 226 -36 q 72 -6 119 -28 q 21 30 40 7 q -6 79 1 53 q -10 131 -14 106 q 8 174 -7 157 q 51 197 24 192 q 115 188 78 201 q 142 167 135 178 q 153 145 150 156 q 158 127 157 135 q 167 115 160 119 q 232 110 210 100 q 253 146 254 121 q 230 204 253 171 q 161 268 207 238 z "},"t":{"ha":274,"x_min":-112,"x_max":474,"o":"m 324 778 q 375 777 347 776 q 426 771 403 778 q 461 745 449 764 q 468 685 474 726 q 440 640 460 653 q 396 623 421 626 q 342 621 371 619 q 288 621 314 622 q 211 365 235 476 q 176 173 188 253 q 158 45 165 93 q 135 -19 151 -3 q 93 -34 119 -39 q 51 -1 67 -29 q 17 122 21 61 q 13 249 13 182 q 21 340 14 288 q 38 445 28 392 q 58 549 47 499 q 81 638 69 600 q 44 642 67 639 q -3 648 21 644 q -46 655 -26 651 q -74 663 -65 658 q -108 700 -104 679 q -89 739 -112 721 q -49 760 -72 753 q -1 769 -26 767 q 21 772 3 771 q 60 776 39 774 q 101 779 82 778 q 126 781 121 781 q 151 838 139 808 q 178 892 163 868 q 218 931 194 917 q 279 942 242 946 q 334 919 319 936 q 349 880 349 903 q 340 830 349 857 q 324 778 331 803 z "},"u":{"ha":576,"x_min":6,"x_max":588,"o":"m 329 146 q 278 76 303 107 q 224 13 253 44 q 146 -8 182 -17 q 82 33 110 0 q 35 117 54 65 q 10 226 15 168 q 7 301 6 258 q 16 390 8 344 q 38 481 24 436 q 72 560 51 525 q 134 619 100 604 q 213 610 168 633 q 258 547 258 582 q 240 468 257 511 q 213 403 225 439 q 194 333 201 368 q 185 264 188 297 q 185 206 182 231 q 204 176 189 175 q 228 193 219 178 q 299 285 271 238 q 346 397 326 332 q 363 458 353 425 q 388 522 372 492 q 425 575 403 553 q 479 604 447 597 q 544 586 515 610 q 579 526 572 563 q 579 451 588 488 q 570 397 576 424 q 557 342 564 369 q 529 227 543 283 q 499 115 515 171 q 488 78 493 100 q 474 35 482 56 q 452 3 465 15 q 419 -6 439 -10 q 381 21 396 4 q 356 58 365 38 q 340 102 346 79 q 329 146 335 125 z "},"v":{"ha":544,"x_min":8,"x_max":558,"o":"m 229 175 q 323 348 290 254 q 361 529 356 442 q 359 595 363 561 q 363 660 356 629 q 411 697 378 699 q 488 665 444 694 q 545 572 532 629 q 549 450 558 515 q 513 317 539 385 q 453 192 486 250 q 388 92 421 135 q 331 36 354 50 q 276 2 311 17 q 213 -21 240 -12 q 117 3 157 -28 q 53 90 78 35 q 19 215 29 144 q 10 356 8 286 q 25 490 11 426 q 63 594 39 554 q 119 656 82 639 q 196 646 156 672 q 225 606 217 628 q 233 562 233 585 q 226 515 232 539 q 214 469 219 492 q 191 377 200 426 q 169 285 182 328 q 160 237 161 269 q 166 178 160 204 q 188 146 172 153 q 229 175 204 139 z "},"w":{"ha":851,"x_min":3,"x_max":828,"o":"m 168 143 q 198 141 181 125 q 234 194 215 157 q 274 281 253 231 q 315 384 294 332 q 356 483 336 436 q 393 558 375 531 q 443 607 413 593 q 506 596 474 621 q 550 517 547 564 q 543 465 550 493 q 531 419 538 442 q 518 372 525 396 q 497 292 507 332 q 478 211 488 251 q 472 189 475 201 q 469 163 469 176 q 472 139 469 150 q 486 119 475 128 q 525 135 506 117 q 556 168 544 153 q 617 311 600 235 q 621 483 633 388 q 618 533 618 508 q 626 579 618 557 q 656 615 638 603 q 703 624 674 628 q 753 603 732 619 q 788 563 774 586 q 810 512 801 539 q 821 460 818 485 q 825 368 828 413 q 813 283 822 324 q 778 186 797 233 q 729 97 758 139 q 675 35 706 63 q 604 -12 644 7 q 540 -32 579 -28 q 441 -16 488 -42 q 358 65 394 10 q 346 88 351 76 q 333 115 340 100 q 301 80 315 99 q 271 44 286 61 q 238 10 256 26 q 199 -15 221 -6 q 119 -17 161 -33 q 50 46 78 0 q 9 171 15 100 q 15 314 3 242 q 56 453 28 386 q 119 565 85 519 q 164 609 142 590 q 221 624 186 628 q 251 613 236 621 q 277 592 265 604 q 295 564 289 579 q 299 535 301 549 q 255 458 282 503 q 204 360 228 413 q 168 252 181 308 q 168 143 156 196 z "},"x":{"ha":571,"x_min":-26,"x_max":568,"o":"m 319 483 q 385 544 358 514 q 433 610 413 574 q 447 634 440 621 q 461 658 453 647 q 498 672 476 674 q 539 651 519 671 q 562 610 556 633 q 567 561 568 586 q 560 512 567 536 q 544 467 554 488 q 508 405 525 431 q 473 359 492 379 q 431 320 454 339 q 376 279 407 301 q 388 234 381 264 q 405 174 394 204 q 429 124 415 144 q 461 106 443 103 q 506 98 485 108 q 524 60 526 88 q 512 15 524 38 q 478 -23 500 -7 q 429 -46 457 -39 q 371 -44 401 -53 q 328 -22 350 -43 q 286 28 307 -1 q 249 92 265 58 q 222 154 232 126 q 171 119 199 144 q 117 63 143 94 q 72 0 92 32 q 42 -54 51 -32 q 16 -64 35 -71 q -11 -35 -3 -57 q -19 44 -26 7 q 4 126 -12 82 q 35 179 17 151 q 77 234 54 207 q 126 288 100 261 q 178 336 151 314 q 159 413 171 375 q 119 490 147 450 q 88 505 107 504 q 53 510 68 506 q 38 532 40 521 q 38 557 36 543 q 57 611 40 588 q 98 648 74 635 q 151 663 122 661 q 210 650 181 664 q 280 579 260 622 q 319 483 300 536 z "},"y":{"ha":597,"x_min":8,"x_max":588,"o":"m 201 -135 q 234 -128 218 -147 q 264 -72 250 -108 q 288 8 278 -36 q 306 86 299 51 q 249 40 274 64 q 193 3 225 15 q 138 -6 165 -8 q 86 12 110 -3 q 44 52 63 26 q 17 113 25 78 q 10 200 8 143 q 22 322 11 257 q 51 447 32 386 q 97 549 71 508 q 164 599 126 585 q 240 583 201 614 q 265 526 268 554 q 253 467 261 499 q 238 419 246 446 q 220 366 229 393 q 203 312 211 339 q 189 264 194 285 q 181 226 185 249 q 178 186 178 204 q 184 158 178 168 q 206 154 190 147 q 231 175 217 163 q 260 203 246 188 q 289 234 275 218 q 313 264 303 250 q 346 341 333 299 q 370 426 358 383 q 398 506 382 468 q 442 571 414 544 q 459 585 449 579 q 478 596 469 592 q 514 597 496 601 q 547 583 532 593 q 571 556 561 572 q 582 518 581 539 q 579 428 588 472 q 542 284 563 358 q 500 135 522 210 q 453 -10 478 61 q 403 -146 429 -82 q 351 -237 381 -194 q 269 -294 322 -279 q 189 -292 232 -306 q 114 -244 146 -278 q 70 -166 82 -210 q 69 -83 58 -122 q 108 -48 81 -47 q 164 -85 135 -49 q 182 -108 174 -96 q 201 -135 190 -119 z "},"z":{"ha":556,"x_min":-17,"x_max":538,"o":"m 394 140 q 417 23 419 88 q 389 -101 414 -42 q 321 -206 364 -160 q 224 -268 278 -251 q 152 -273 190 -278 q 80 -249 114 -268 q 20 -194 46 -229 q -12 -106 -6 -158 q -8 -56 -17 -67 q 17 -49 1 -44 q 53 -66 32 -53 q 96 -92 75 -79 q 143 -108 118 -107 q 189 -101 168 -110 q 226 -76 210 -93 q 247 -33 242 -58 q 250 -12 249 -25 q 253 16 251 1 q 255 43 254 31 q 257 64 256 56 q 235 58 249 64 q 205 47 221 53 q 174 35 189 40 q 149 28 158 29 q 92 50 114 25 q 78 108 71 75 q 92 149 81 132 q 122 179 104 167 q 177 215 143 193 q 246 265 211 238 q 309 322 281 292 q 349 381 338 351 q 355 417 357 400 q 326 433 353 433 q 179 382 239 424 q 68 282 119 340 q 30 277 49 268 q 3 313 11 286 q 6 411 -11 367 q 58 492 24 456 q 135 551 93 525 q 224 594 178 578 q 316 616 269 611 q 408 610 363 621 q 476 571 449 597 q 517 511 503 544 q 535 440 532 478 q 528 364 538 401 q 479 240 513 297 q 394 140 446 182 z "},"a":{"ha":574,"x_min":7,"x_max":549,"o":"m 331 94 q 259 26 285 44 q 210 3 233 8 q 149 6 179 -1 q 94 32 119 14 q 51 77 69 50 q 25 139 33 104 q 17 292 7 214 q 63 439 28 371 q 155 556 97 507 q 292 621 213 606 q 361 626 325 631 q 428 606 397 622 q 483 562 460 589 q 510 499 506 535 q 540 435 532 472 q 542 364 549 399 q 508 191 525 274 q 482 15 492 108 q 444 -15 471 -10 q 392 -8 418 -19 q 347 29 367 3 q 331 94 328 56 m 351 457 q 307 445 328 456 q 269 419 286 435 q 238 385 251 404 q 214 347 224 365 q 194 299 201 326 q 186 247 188 272 q 190 203 185 222 q 208 178 194 183 q 251 174 231 167 q 288 205 271 182 q 319 266 304 228 q 347 353 335 304 q 353 374 349 357 q 359 410 357 392 q 360 442 361 428 q 351 457 360 457 z "},"D":{"ha":761,"x_min":7,"x_max":807,"o":"m 746 415 q 657 248 708 331 q 539 99 606 165 q 390 -10 472 33 q 211 -57 308 -53 q 138 -51 172 -60 q 78 -23 104 -42 q 35 24 51 -4 q 14 86 18 51 q 15 218 7 146 q 40 365 24 290 q 79 516 57 440 q 121 661 101 592 q 126 731 132 701 q 92 803 119 760 q 87 841 81 818 q 113 879 93 864 q 220 942 161 918 q 340 977 279 967 q 456 985 400 988 q 557 969 513 983 q 714 878 658 940 q 788 739 769 817 q 794 576 807 661 q 746 415 781 492 m 350 782 q 315 616 338 704 q 271 445 293 528 q 231 294 249 363 q 211 186 214 225 q 217 149 210 161 q 236 134 224 136 q 265 138 249 132 q 296 157 281 144 q 386 228 342 182 q 469 333 431 275 q 538 457 508 392 q 582 585 567 522 q 587 697 603 647 q 533 776 571 747 q 446 808 496 804 q 350 782 396 811 z "},"E":{"ha":751,"x_min":6,"x_max":831,"o":"m 300 576 q 375 588 328 581 q 468 601 422 596 q 547 604 514 606 q 582 589 581 603 q 566 520 589 550 q 501 475 543 490 q 447 458 481 467 q 378 440 414 449 q 308 424 342 432 q 253 410 274 417 q 239 363 247 392 q 223 301 231 333 q 210 238 215 269 q 208 181 206 206 q 220 144 210 157 q 254 136 231 131 q 368 178 317 157 q 465 224 419 200 q 551 274 510 247 q 636 333 593 300 q 669 363 653 349 q 697 381 686 376 q 714 377 708 386 q 714 338 719 368 q 694 278 707 306 q 664 226 681 250 q 578 127 625 171 q 478 49 531 83 q 372 -12 426 15 q 263 -61 317 -39 q 165 -70 210 -78 q 87 -37 121 -62 q 32 29 53 -11 q 8 115 11 69 q 9 197 6 160 q 20 269 13 233 q 37 340 28 304 q 54 419 46 376 q 28 454 39 435 q 20 493 18 474 q 40 529 22 513 q 99 556 57 546 q 115 606 104 572 q 136 679 126 640 q 152 753 146 718 q 156 806 158 789 q 182 874 147 851 q 240 910 211 896 q 411 976 325 951 q 585 1010 497 1000 q 654 1010 618 1013 q 722 997 690 1007 q 781 966 754 986 q 821 915 807 946 q 823 870 831 889 q 794 847 815 851 q 611 836 708 850 q 418 775 514 822 q 372 749 389 761 q 345 723 356 738 q 328 688 335 708 q 313 638 322 668 q 307 609 310 626 q 300 576 304 592 z "},"F":{"ha":589,"x_min":1,"x_max":826,"o":"m 290 525 q 353 529 318 526 q 407 531 389 532 q 490 513 456 524 q 557 472 524 503 q 574 445 574 458 q 565 420 574 432 q 542 401 556 408 q 515 389 528 393 q 377 373 446 378 q 246 350 308 368 q 224 279 233 322 q 206 189 215 236 q 188 95 197 142 q 167 14 179 49 q 157 -22 163 -3 q 142 -58 151 -42 q 119 -83 133 -74 q 83 -89 106 -93 q 45 -64 60 -83 q 21 -17 31 -44 q 4 107 1 42 q 18 229 7 172 q 33 308 25 269 q 50 386 42 347 q 36 420 43 403 q 29 454 29 438 q 40 485 29 471 q 78 511 50 500 q 98 593 89 556 q 118 674 107 631 q 129 740 126 707 q 122 810 132 772 q 117 872 111 854 q 156 906 124 890 q 290 959 222 935 q 424 996 357 983 q 558 1006 492 1008 q 689 979 625 1003 q 765 929 731 960 q 817 857 800 899 q 819 818 826 836 q 793 799 813 800 q 758 800 775 797 q 722 806 740 803 q 638 810 689 810 q 531 805 586 810 q 426 791 476 800 q 344 769 375 782 q 317 656 333 718 q 290 525 301 593 z "},"G":{"ha":758,"x_min":-3,"x_max":811,"o":"m 531 381 q 508 385 522 382 q 479 391 494 388 q 450 398 464 394 q 428 401 436 401 q 369 463 365 435 q 415 509 372 490 q 526 536 458 528 q 661 538 594 544 q 720 517 700 535 q 739 454 740 499 q 721 326 729 383 q 703 215 713 268 q 681 107 693 161 q 650 -11 668 53 q 626 -62 644 -42 q 581 -87 607 -82 q 524 -78 554 -92 q 467 -28 494 -65 q 416 -39 446 -33 q 354 -48 386 -44 q 291 -50 322 -51 q 236 -42 260 -49 q 116 22 164 -21 q 42 120 68 64 q 6 242 15 176 q 2 374 -3 307 q 24 504 7 440 q 63 621 40 568 q 197 828 110 742 q 388 951 285 914 q 597 973 492 989 q 782 876 701 957 q 810 823 811 847 q 790 784 808 799 q 740 765 771 769 q 681 772 710 761 q 560 790 618 793 q 453 765 503 786 q 361 707 403 743 q 289 626 319 671 q 251 553 269 596 q 220 464 233 511 q 201 368 207 417 q 201 276 196 319 q 227 199 207 233 q 285 149 247 165 q 396 137 353 124 q 465 187 439 150 q 506 276 492 224 q 531 381 519 328 z "},"H":{"ha":806,"x_min":-1,"x_max":928,"o":"m 336 571 q 432 535 385 551 q 535 499 479 518 q 571 610 549 550 q 621 731 593 671 q 682 849 649 792 q 753 950 715 906 q 782 974 764 963 q 821 990 800 985 q 862 992 842 996 q 899 974 882 989 q 922 940 917 958 q 926 901 928 921 q 919 862 925 881 q 906 829 913 843 q 864 730 886 783 q 821 622 842 676 q 781 512 800 567 q 750 408 763 457 q 774 372 768 392 q 774 335 779 353 q 753 303 769 317 q 713 285 738 289 q 688 122 689 200 q 685 -43 686 43 q 663 -75 686 -69 q 615 -65 639 -81 q 547 22 571 -26 q 513 125 524 71 q 501 235 501 179 q 503 344 500 290 q 387 377 442 367 q 278 392 332 388 q 233 124 238 249 q 244 -106 229 -1 q 222 -143 242 -137 q 172 -131 201 -149 q 131 -92 149 -115 q 100 -44 114 -69 q 64 76 75 10 q 49 206 53 142 q 48 327 46 271 q 54 418 50 383 q 52 424 53 419 q 50 431 51 428 q 6 485 13 465 q 13 538 -1 506 q 27 566 18 553 q 47 582 36 579 q 94 612 79 589 q 119 663 108 635 q 158 769 136 711 q 210 878 181 828 q 282 966 240 929 q 381 1007 324 1003 q 437 981 424 1006 q 447 925 450 957 q 433 862 444 893 q 415 814 421 831 q 368 689 386 747 q 336 571 350 631 z "},"I":{"ha":274,"x_min":13,"x_max":356,"o":"m 119 838 q 147 896 132 865 q 178 950 161 926 q 219 986 196 974 q 275 992 243 999 q 331 961 314 983 q 352 913 349 939 q 348 860 356 886 q 331 817 340 833 q 257 615 288 725 q 208 394 226 504 q 183 183 189 285 q 182 8 176 82 q 160 -22 178 -12 q 119 -31 142 -32 q 75 -20 97 -31 q 40 11 53 -10 q 15 202 18 92 q 25 428 13 313 q 62 651 38 543 q 119 838 86 760 z "},"J":{"ha":544,"x_min":-1,"x_max":647,"o":"m 425 801 q 338 804 385 810 q 248 783 292 799 q 170 741 204 767 q 122 683 136 715 q 100 676 113 672 q 81 697 88 681 q 66 760 68 726 q 71 826 64 793 q 92 888 78 858 q 128 942 107 918 q 226 1002 167 985 q 351 1015 285 1019 q 481 988 417 1011 q 594 931 544 965 q 619 840 647 897 q 568 673 590 765 q 526 486 546 581 q 487 303 507 392 q 442 146 467 214 q 405 53 425 100 q 358 -35 385 6 q 294 -108 331 -76 q 211 -157 258 -140 q 146 -158 179 -167 q 84 -127 113 -150 q 35 -70 56 -104 q 6 6 14 -36 q 6 86 -1 44 q 29 163 13 128 q 70 225 46 199 q 124 260 94 251 q 150 252 139 265 q 158 218 161 239 q 151 172 156 194 q 146 125 147 149 q 154 85 146 99 q 175 68 163 71 q 201 74 188 65 q 226 101 215 82 q 257 163 242 119 q 287 264 272 206 q 317 391 301 322 q 349 532 332 460 q 384 674 365 604 q 425 801 403 743 z "},"K":{"ha":692,"x_min":4,"x_max":901,"o":"m 300 540 q 460 615 381 564 q 608 728 540 665 q 726 860 676 792 q 797 990 776 929 q 819 1008 807 1001 q 847 1004 831 1015 q 878 965 867 989 q 896 916 890 942 q 901 865 901 890 q 897 822 901 840 q 828 693 875 753 q 720 581 782 633 q 587 485 658 529 q 443 404 515 440 q 503 195 468 288 q 586 39 538 103 q 699 -59 635 -25 q 847 -93 764 -93 q 860 -115 858 -100 q 854 -139 863 -129 q 647 -155 747 -175 q 464 -68 546 -135 q 323 108 382 -1 q 242 358 264 217 q 209 257 222 310 q 186 150 196 204 q 169 42 176 96 q 156 -60 161 -11 q 142 -74 154 -68 q 115 -82 131 -79 q 86 -84 100 -85 q 67 -78 72 -83 q 42 -34 50 -65 q 30 39 33 -3 q 27 130 26 81 q 31 227 28 179 q 39 319 35 275 q 47 396 43 364 q 8 440 11 418 q 17 481 4 463 q 50 510 29 499 q 83 526 71 522 q 149 731 115 636 q 226 897 182 826 q 297 976 257 953 q 407 1006 336 1000 q 454 996 439 1008 q 472 961 469 983 q 467 909 475 939 q 448 849 460 879 q 422 793 436 819 q 397 749 408 767 q 342 643 369 693 q 300 540 314 593 z "},"L":{"ha":858,"x_min":-1,"x_max":819,"o":"m 146 163 q 197 294 175 222 q 240 442 219 367 q 280 594 260 518 q 324 735 300 669 q 379 855 349 801 q 453 939 410 908 q 559 990 503 981 q 663 980 615 999 q 743 919 711 961 q 778 814 775 876 q 765 728 778 772 q 728 651 751 683 q 674 606 706 619 q 606 615 643 593 q 581 660 582 639 q 588 701 579 682 q 613 740 597 721 q 636 778 628 758 q 633 819 642 803 q 608 838 625 836 q 569 821 592 839 q 525 758 547 803 q 472 613 494 692 q 430 453 450 535 q 387 290 410 372 q 331 133 364 208 q 422 122 371 131 q 526 116 472 114 q 636 138 581 118 q 743 211 692 157 q 769 235 754 224 q 795 251 783 247 q 813 247 807 254 q 815 213 819 239 q 799 153 808 183 q 778 97 790 124 q 732 17 756 49 q 675 -33 708 -15 q 595 -56 642 -51 q 481 -53 549 -60 q 371 -41 425 -50 q 263 -27 317 -32 q 156 -26 210 -22 q 46 -53 101 -31 q 7 -35 15 -62 q 6 33 -1 -7 q 33 110 14 72 q 76 158 53 147 q 109 160 94 163 q 146 163 124 157 z "},"M":{"ha":997,"x_min":8,"x_max":1071,"o":"m 144 89 q 142 51 143 75 q 136 6 140 28 q 122 -33 132 -17 q 92 -50 111 -50 q 51 -30 67 -44 q 28 3 36 -15 q 17 44 19 22 q 13 86 14 67 q 31 286 8 181 q 95 496 54 392 q 189 697 136 600 q 296 868 242 793 q 338 917 315 893 q 386 960 361 942 q 438 990 411 979 q 494 999 465 1000 q 549 971 528 994 q 576 906 571 947 q 575 813 579 856 q 565 727 571 769 q 552 642 558 685 q 542 553 546 600 q 579 610 560 579 q 618 672 599 640 q 656 733 638 703 q 694 788 675 763 q 752 862 724 825 q 813 928 781 899 q 881 974 844 957 q 960 990 917 992 q 1042 938 1014 983 q 1068 825 1071 893 q 1065 788 1068 808 q 1058 747 1063 768 q 1050 706 1054 726 q 1042 671 1046 686 q 993 512 1019 590 q 944 355 967 433 q 906 199 921 276 q 894 42 892 121 q 888 -26 897 -3 q 857 -56 878 -49 q 799 -51 829 -65 q 753 -6 769 -37 q 716 167 715 74 q 737 354 717 260 q 785 538 757 449 q 833 701 814 628 q 751 587 793 654 q 668 447 708 519 q 590 302 628 374 q 521 175 551 231 q 497 126 511 157 q 465 67 483 94 q 424 25 447 40 q 375 24 401 10 q 343 69 349 39 q 332 131 338 99 q 330 264 326 192 q 342 410 333 336 q 363 559 350 485 q 388 699 375 633 q 299 569 339 640 q 227 419 258 497 q 174 257 196 340 q 144 89 153 174 z "},"N":{"ha":901,"x_min":4,"x_max":906,"o":"m 600 247 q 663 372 639 300 q 703 526 686 444 q 734 695 719 608 q 769 864 749 782 q 783 910 774 882 q 807 957 793 938 q 838 977 821 976 q 872 942 854 978 q 893 877 886 914 q 903 803 900 840 q 905 728 906 765 q 904 664 904 692 q 872 414 901 531 q 796 190 843 297 q 747 108 771 142 q 701 48 724 74 q 656 4 678 22 q 615 -28 635 -14 q 562 -47 590 -46 q 506 -36 533 -49 q 455 2 479 -24 q 414 64 431 28 q 376 201 386 132 q 363 342 365 271 q 363 483 361 413 q 358 625 364 554 q 312 559 335 600 q 267 469 289 518 q 228 367 246 421 q 195 263 210 314 q 170 167 181 213 q 156 89 160 121 q 147 42 153 75 q 130 -20 142 8 q 101 -58 118 -49 q 57 -33 83 -67 q 15 63 26 13 q 5 165 4 113 q 15 272 6 218 q 35 379 24 326 q 97 561 60 465 q 180 742 133 657 q 280 890 226 826 q 392 976 333 954 q 450 972 428 992 q 485 917 472 951 q 502 844 497 882 q 508 785 507 806 q 524 584 511 679 q 539 385 536 489 q 541 335 539 367 q 550 276 543 303 q 569 237 557 249 q 600 247 581 225 z "},"O":{"ha":733,"x_min":6,"x_max":742,"o":"m 11 263 q 15 439 6 350 q 49 610 24 528 q 117 766 74 693 q 226 897 161 839 q 319 957 268 936 q 426 985 369 978 q 586 947 522 988 q 686 837 650 906 q 732 678 722 768 q 729 493 742 588 q 703 339 724 418 q 648 188 683 260 q 565 56 613 115 q 458 -36 517 -3 q 328 -71 399 -69 q 179 -29 258 -72 q 11 263 32 71 m 546 676 q 542 708 546 692 q 501 790 531 765 q 429 799 471 814 q 353 740 388 778 q 292 651 318 701 q 247 544 265 601 q 219 431 229 488 q 210 320 210 374 q 219 225 210 267 q 274 130 239 158 q 354 126 310 101 q 443 217 403 156 q 509 357 483 279 q 545 519 535 435 q 546 676 556 603 z "},"P":{"ha":647,"x_min":14,"x_max":689,"o":"m 236 308 q 226 238 232 276 q 215 161 221 200 q 204 86 210 122 q 194 24 199 50 q 186 -10 192 4 q 172 -40 181 -25 q 126 -67 151 -72 q 79 -39 101 -62 q 41 19 57 -15 q 24 81 25 54 q 20 255 14 168 q 40 428 26 342 q 67 599 53 514 q 90 767 82 683 q 89 819 92 794 q 68 871 86 844 q 54 920 51 901 q 74 954 57 939 q 142 986 103 975 q 226 1000 182 997 q 315 998 269 1003 q 403 982 360 993 q 509 938 457 969 q 601 860 561 907 q 664 751 640 814 q 686 610 688 688 q 653 446 689 515 q 556 336 618 376 q 412 288 494 296 q 236 308 329 279 m 263 465 q 319 455 290 458 q 374 452 349 451 q 419 460 399 453 q 451 483 440 468 q 488 541 475 507 q 503 613 501 575 q 495 686 506 650 q 462 751 485 722 q 402 794 439 779 q 314 806 365 810 q 302 722 310 769 q 286 624 294 674 q 271 533 278 575 q 263 465 264 490 z "},"Q":{"ha":843,"x_min":1,"x_max":849,"o":"m 494 -69 q 531 -107 514 -89 q 565 -140 547 -125 q 668 -162 611 -185 q 685 -154 676 -160 q 701 -144 693 -149 q 723 -140 713 -142 q 743 -154 733 -137 q 748 -178 750 -165 q 739 -203 746 -192 q 722 -224 731 -214 q 703 -240 714 -233 q 605 -283 657 -271 q 492 -279 553 -296 q 382 -233 433 -261 q 286 -154 331 -204 q 238 -100 261 -126 q 190 -46 214 -74 q 118 6 156 -10 q 38 7 81 22 q 21 8 31 4 q 1 13 11 11 q 7 53 3 38 q 22 80 11 69 q 53 99 33 90 q 107 117 74 107 q 84 241 93 181 q 74 360 75 301 q 82 476 74 418 q 111 596 90 535 q 183 753 140 676 q 284 888 225 831 q 419 976 343 946 q 590 992 496 1006 q 740 911 679 976 q 819 743 800 846 q 828 463 849 597 q 790 308 814 383 q 729 167 765 233 q 640 47 690 99 q 524 -42 589 -6 q 513 -47 517 -44 q 504 -53 510 -50 q 501 -57 503 -54 q 494 -69 500 -60 m 644 686 q 642 703 643 694 q 640 721 642 713 q 590 801 625 783 q 517 807 556 818 q 441 765 478 796 q 385 701 404 735 q 331 582 356 651 q 290 439 306 513 q 270 297 275 365 q 278 182 265 229 q 339 102 297 124 q 426 104 381 81 q 522 204 478 136 q 595 356 565 272 q 639 527 625 439 q 644 686 653 615 z "},"R":{"ha":692,"x_min":15,"x_max":886,"o":"m 246 288 q 214 156 224 228 q 201 18 204 85 q 176 -31 201 -19 q 120 -28 151 -42 q 62 25 89 -14 q 33 125 35 64 q 35 212 28 163 q 53 306 43 261 q 25 379 15 346 q 79 444 35 413 q 112 569 96 507 q 139 697 128 631 q 138 739 142 719 q 115 778 133 758 q 94 822 97 800 q 99 865 92 844 q 122 903 107 886 q 157 933 138 921 q 301 983 221 965 q 457 997 381 1000 q 599 965 533 993 q 701 879 664 938 q 742 738 740 815 q 717 585 743 661 q 641 444 690 510 q 529 336 592 378 q 556 169 538 240 q 608 46 575 97 q 690 -38 640 -6 q 810 -87 739 -71 q 847 -95 832 -93 q 872 -100 863 -97 q 883 -108 881 -103 q 885 -124 886 -112 q 867 -144 882 -135 q 826 -160 851 -153 q 771 -169 801 -167 q 710 -167 740 -171 q 447 -33 547 -146 q 321 292 346 79 q 282 289 297 289 q 246 288 267 289 m 288 464 q 370 483 328 467 q 449 529 413 500 q 513 599 486 558 q 547 689 539 639 q 540 769 556 743 q 498 802 525 796 q 437 801 471 808 q 376 779 403 793 q 353 708 365 747 q 330 628 342 669 q 307 544 318 586 q 288 464 296 501 z "},"S":{"ha":715,"x_min":0,"x_max":772,"o":"m 604 813 q 567 818 596 825 q 503 792 539 811 q 431 744 467 772 q 371 686 394 715 q 349 665 358 678 q 337 640 339 651 q 342 620 335 628 q 375 615 350 613 q 443 618 403 618 q 511 615 483 618 q 593 593 557 613 q 653 539 629 574 q 685 458 676 504 q 686 354 694 411 q 653 242 678 296 q 597 147 628 189 q 451 -9 531 54 q 272 -97 371 -72 q 158 -101 211 -111 q 69 -62 106 -92 q 17 15 33 -33 q 11 126 0 63 q 33 189 17 157 q 74 248 50 221 q 131 294 99 275 q 200 319 163 313 q 223 309 213 322 q 231 281 233 296 q 213 228 226 251 q 189 179 200 206 q 185 139 181 154 q 201 118 189 124 q 231 115 213 113 q 267 126 249 117 q 377 200 325 158 q 478 292 429 242 q 505 327 493 308 q 524 371 517 346 q 521 406 528 390 q 499 425 514 422 q 432 428 465 431 q 366 422 399 426 q 301 415 333 418 q 235 414 268 411 q 179 433 203 417 q 141 477 156 450 q 123 538 126 504 q 128 611 119 572 q 213 770 153 694 q 348 902 272 846 q 507 989 424 958 q 664 1014 590 1019 q 723 996 699 1013 q 760 953 747 979 q 772 894 772 928 q 758 822 772 860 q 724 769 747 793 q 678 731 701 746 q 613 764 631 699 q 608 786 610 775 q 604 813 607 797 z "},"T":{"ha":493,"x_min":3,"x_max":875,"o":"m 531 778 q 447 617 482 708 q 388 423 411 526 q 349 208 364 319 q 328 -10 335 97 q 315 -57 324 -36 q 281 -81 306 -78 q 231 -63 251 -82 q 197 -17 210 -44 q 176 40 183 10 q 165 89 168 69 q 165 183 161 115 q 186 345 169 251 q 235 548 203 439 q 319 764 267 657 q 257 763 294 765 q 182 756 219 760 q 113 746 144 751 q 65 736 81 740 q 43 733 56 733 q 22 735 31 732 q 8 747 13 739 q 7 769 3 756 q 54 833 14 804 q 154 887 94 863 q 288 931 214 911 q 438 965 363 951 q 583 988 513 979 q 706 1001 653 997 q 767 1001 744 1004 q 803 990 789 999 q 826 965 817 981 q 849 926 836 949 q 869 834 875 864 q 818 793 863 804 q 682 785 757 782 q 531 778 607 789 z "},"U":{"ha":738,"x_min":3,"x_max":776,"o":"m 463 103 q 425 47 443 74 q 385 -1 407 21 q 334 -36 363 -22 q 268 -53 306 -50 q 166 -31 211 -56 q 88 34 121 -6 q 37 122 56 74 q 14 213 18 169 q 7 384 3 296 q 28 562 11 472 q 71 741 44 651 q 129 917 97 831 q 193 978 153 965 q 296 960 233 990 q 335 927 322 944 q 352 892 349 910 q 351 855 356 874 q 340 819 347 836 q 283 674 308 749 q 242 528 258 599 q 216 393 225 457 q 210 282 207 329 q 220 194 207 235 q 256 135 233 154 q 309 122 279 115 q 371 176 339 129 q 418 263 399 211 q 453 378 438 315 q 480 511 468 442 q 504 649 492 581 q 531 783 517 718 q 563 899 544 847 q 615 953 578 946 q 704 938 651 960 q 757 896 738 922 q 775 832 776 869 q 770 803 774 819 q 763 769 767 786 q 754 735 758 751 q 747 708 750 718 q 690 510 715 619 q 651 299 665 401 q 635 117 636 197 q 651 6 635 36 q 642 -24 656 -10 q 607 -44 629 -37 q 558 -48 585 -51 q 508 -25 532 -44 q 471 34 481 0 q 463 103 461 68 z "},"V":{"ha":644,"x_min":8,"x_max":746,"o":"m 271 183 q 361 312 322 243 q 429 457 400 381 q 481 615 458 533 q 526 782 504 696 q 541 849 535 815 q 554 915 547 883 q 590 995 565 975 q 641 1006 614 1015 q 693 961 668 996 q 733 878 718 926 q 738 772 746 840 q 708 628 729 704 q 658 477 688 551 q 601 351 629 403 q 529 227 565 286 q 451 118 493 168 q 359 27 410 68 q 243 -44 308 -14 q 171 -59 207 -62 q 104 -33 135 -56 q 50 27 74 -11 q 17 115 26 65 q 14 257 8 175 q 32 431 19 339 q 59 617 44 522 q 85 796 74 711 q 98 857 92 826 q 114 917 104 888 q 186 999 133 981 q 242 983 224 1007 q 269 924 261 960 q 278 852 278 889 q 279 797 279 815 q 249 514 274 651 q 193 240 225 376 q 192 134 174 153 q 271 183 211 115 z "},"W":{"ha":926,"x_min":1,"x_max":979,"o":"m 260 203 q 324 328 299 256 q 367 481 349 400 q 404 645 386 561 q 447 806 422 729 q 464 845 454 826 q 486 878 474 864 q 548 888 513 904 q 603 825 583 872 q 613 790 611 806 q 615 759 615 774 q 613 728 615 744 q 610 694 611 713 q 590 541 599 617 q 576 396 581 465 q 573 265 572 326 q 582 157 574 204 q 607 156 592 140 q 642 209 622 171 q 682 303 661 247 q 723 425 703 360 q 762 560 743 490 q 794 695 781 629 q 814 818 807 761 q 819 914 821 875 q 821 929 819 921 q 824 944 822 938 q 862 983 835 981 q 917 951 889 986 q 951 888 938 926 q 970 814 967 851 q 976 740 974 776 q 970 597 979 665 q 940 464 961 529 q 893 336 918 396 q 838 222 868 276 q 772 115 807 167 q 697 13 738 64 q 590 -57 644 -47 q 488 -45 535 -67 q 410 20 442 -24 q 374 113 378 64 q 328 55 349 85 q 285 0 307 25 q 235 -41 263 -25 q 174 -58 208 -57 q 79 -14 115 -58 q 24 101 43 31 q 10 308 1 207 q 39 508 19 408 q 77 709 58 607 q 93 921 96 811 q 119 975 100 961 q 171 982 139 989 q 250 878 229 944 q 270 730 271 811 q 253 560 269 649 q 222 393 238 472 q 196 251 206 314 q 199 157 186 188 q 215 153 207 149 q 231 166 224 157 q 246 185 239 175 q 260 203 253 196 z "},"X":{"ha":743,"x_min":4,"x_max":832,"o":"m 493 589 q 553 631 521 607 q 614 685 585 656 q 667 748 643 714 q 704 822 692 782 q 716 895 718 864 q 710 947 714 926 q 707 979 706 968 q 729 993 708 990 q 778 966 757 993 q 813 901 800 939 q 828 822 825 863 q 824 751 832 781 q 781 650 811 696 q 712 565 751 604 q 626 489 672 525 q 535 417 579 453 q 553 265 542 347 q 593 115 565 183 q 613 81 600 89 q 641 74 626 74 q 671 82 656 75 q 698 92 686 89 q 717 92 710 96 q 725 68 725 88 q 626 -57 713 -6 q 527 -80 579 -85 q 442 -28 475 -75 q 399 53 417 11 q 370 138 382 94 q 349 222 358 181 q 332 303 340 264 q 255 226 292 274 q 188 126 218 179 q 137 21 157 74 q 113 -71 117 -32 q 98 -90 108 -85 q 75 -91 88 -94 q 50 -78 63 -87 q 29 -53 38 -68 q 6 22 4 -10 q 21 94 8 54 q 69 210 39 154 q 139 315 100 265 q 220 408 178 365 q 303 488 263 451 q 285 617 293 553 q 261 740 276 681 q 219 849 246 799 q 147 939 193 900 q 141 960 142 950 q 151 975 140 971 q 206 987 178 986 q 262 979 235 988 q 312 956 289 971 q 351 919 335 940 q 390 869 369 900 q 431 798 411 839 q 467 705 450 757 q 493 589 483 653 z "},"Y":{"ha":567,"x_min":4,"x_max":719,"o":"m 324 156 q 237 119 281 128 q 153 122 193 110 q 81 169 114 135 q 26 261 47 204 q 6 417 4 331 q 26 588 7 503 q 82 748 46 672 q 164 874 118 824 q 194 901 178 889 q 233 915 210 914 q 265 908 249 917 q 293 885 281 900 q 312 853 306 871 q 315 815 318 835 q 293 757 311 788 q 264 703 275 726 q 231 615 246 663 q 206 520 215 568 q 192 427 196 472 q 193 347 188 382 q 210 298 197 318 q 242 269 224 278 q 281 267 260 261 q 321 293 301 272 q 344 440 326 358 q 387 601 361 521 q 445 750 413 681 q 515 861 478 819 q 653 901 567 926 q 679 889 665 897 q 703 869 693 881 q 716 843 713 857 q 713 814 719 829 q 592 593 633 710 q 531 360 550 476 q 506 131 511 243 q 490 -79 500 18 q 453 -195 486 -151 q 372 -258 421 -239 q 264 -275 322 -278 q 151 -250 206 -272 q 76 -202 106 -232 q 32 -135 47 -172 q 15 -56 17 -97 q 24 25 14 -15 q 61 74 35 58 q 115 88 88 90 q 141 65 140 83 q 136 22 142 46 q 133 -44 122 -17 q 168 -88 144 -72 q 222 -108 192 -104 q 274 -103 251 -111 q 317 -60 306 -89 q 328 4 328 -32 q 325 80 329 40 q 324 156 321 119 z "},"Z":{"ha":808,"x_min":-25,"x_max":899,"o":"m 363 107 q 428 105 390 106 q 508 109 467 104 q 586 127 549 114 q 651 167 624 140 q 694 199 672 181 q 732 236 715 218 q 763 236 756 246 q 769 209 771 226 q 762 172 768 192 q 751 143 756 153 q 708 49 726 89 q 663 -15 690 10 q 585 -52 635 -40 q 449 -65 536 -64 q 272 -69 364 -65 q 96 -65 179 -72 q 71 -62 83 -64 q 46 -56 58 -61 q 26 42 -25 -29 q 151 212 85 119 q 285 399 217 304 q 424 585 354 493 q 558 757 493 678 q 574 776 567 767 q 583 794 581 786 q 578 808 585 803 q 554 813 572 813 q 500 813 531 813 q 437 806 469 813 q 372 782 404 799 q 315 733 340 765 q 288 712 301 722 q 260 693 275 701 q 226 698 240 683 q 211 739 211 713 q 222 791 213 767 q 243 838 231 815 q 267 888 253 861 q 301 937 282 914 q 345 975 321 960 q 399 992 369 990 q 553 984 481 981 q 687 992 626 988 q 793 994 747 996 q 867 972 839 993 q 894 935 889 956 q 893 893 899 914 q 875 852 888 872 q 850 815 863 832 q 602 481 724 653 q 356 154 481 308 q 339 124 340 136 q 363 107 338 113 z "},"A":{"ha":751,"x_min":0,"x_max":739,"o":"m 543 -44 q 495 -19 513 -39 q 469 31 478 1 q 458 94 460 60 q 458 162 456 129 q 463 223 460 194 q 467 268 465 251 q 416 282 444 275 q 356 294 388 289 q 294 304 325 300 q 238 310 264 308 q 213 176 218 240 q 197 63 207 113 q 164 -18 188 13 q 85 -49 140 -49 q 35 -18 51 -44 q 13 47 18 8 q 12 130 8 85 q 23 217 15 175 q 40 292 31 258 q 54 339 49 325 q 11 378 22 346 q 8 444 0 410 q 42 502 17 478 q 107 519 67 526 q 193 684 142 600 q 310 838 244 768 q 456 953 376 907 q 625 1004 535 1000 q 699 975 675 1007 q 731 897 722 943 q 736 802 739 851 q 731 722 733 753 q 705 540 719 628 q 675 363 690 451 q 718 318 706 342 q 727 274 731 294 q 704 238 724 253 q 654 222 685 224 q 644 140 646 186 q 634 51 642 93 q 606 -19 626 10 q 543 -44 586 -47 m 493 425 q 512 530 503 481 q 530 626 521 579 q 549 719 539 672 q 571 819 558 767 q 481 755 525 794 q 399 669 436 715 q 333 573 361 622 q 290 481 304 524 q 401 456 349 469 q 493 425 454 443 z "},"B":{"ha":751,"x_min":6,"x_max":731,"o":"m 113 882 q 213 956 158 926 q 326 998 268 985 q 442 1007 385 1011 q 553 982 500 1003 q 631 913 603 957 q 664 816 658 868 q 653 710 669 764 q 600 611 638 656 q 694 545 665 594 q 727 435 724 496 q 714 312 731 374 q 671 210 697 250 q 451 10 578 75 q 150 -71 324 -56 q 90 -60 117 -68 q 44 -35 63 -51 q 15 9 25 -18 q 6 76 6 36 q 16 210 6 138 q 44 359 26 282 q 83 516 61 436 q 125 674 104 596 q 133 740 135 708 q 107 801 131 772 q 94 842 93 825 q 113 882 94 860 m 199 128 q 211 115 197 115 q 249 122 225 114 q 303 144 272 129 q 364 176 333 158 q 422 215 394 194 q 467 256 449 236 q 522 331 504 288 q 535 422 539 375 q 505 469 532 464 q 447 456 478 475 q 401 429 428 443 q 345 402 374 415 q 290 376 317 389 q 246 354 264 364 q 222 235 235 293 q 199 128 210 178 m 289 551 q 362 590 332 569 q 419 638 392 611 q 474 722 463 676 q 474 797 486 767 q 428 834 463 828 q 346 803 394 840 q 319 685 335 751 q 289 551 304 618 z "},"C":{"ha":772,"x_min":3,"x_max":788,"o":"m 269 -54 q 177 -40 218 -57 q 106 8 136 -22 q 54 78 75 39 q 22 158 33 117 q 5 314 3 231 q 26 467 7 397 q 74 599 47 539 q 133 710 100 660 q 208 806 167 761 q 303 892 250 850 q 440 967 363 942 q 592 981 518 992 q 723 910 679 967 q 756 753 767 853 q 714 609 747 674 q 629 493 681 544 q 616 482 624 486 q 601 475 608 478 q 542 478 565 460 q 517 542 518 497 q 532 620 517 585 q 571 688 547 656 q 591 709 581 699 q 611 731 601 719 q 617 764 621 744 q 600 793 613 783 q 539 806 571 815 q 502 792 521 799 q 468 774 483 785 q 290 587 356 699 q 197 332 225 475 q 197 243 190 289 q 231 160 203 190 q 307 128 260 131 q 345 131 326 128 q 383 142 364 135 q 469 184 428 157 q 547 243 510 211 q 616 303 583 272 q 682 365 649 335 q 714 391 697 379 q 749 413 731 403 q 763 415 754 417 q 776 410 771 414 q 785 394 782 404 q 785 378 788 385 q 772 340 778 358 q 757 304 767 321 q 642 145 704 218 q 500 19 581 72 q 390 -35 443 -18 q 269 -54 336 -53 z "}}}
